<svg width="16156" height="1600" viewBox="0 0 16156 1600" fill="none" xmlns="http://www.w3.org/2000/svg">
<rect width="1600" height="1600" rx="222" fill="white"/>
<path d="M1167.46 599.391L882.492 1302H724.972L440 599.391H596.09L806.596 1148.22L1019.96 599.391H1167.46Z" fill="#212527"/>
<path d="M1272 386.821C1272 411.567 1261.98 432.778 1241.93 450.454C1222.84 467.246 1198.02 475.642 1167.47 475.642C1135.96 475.642 1110.19 467.246 1090.14 450.454C1071.04 432.778 1061.5 411.567 1061.5 386.821C1061.5 360.307 1071.04 339.096 1090.14 323.188C1110.19 306.396 1135.96 298 1167.47 298C1198.02 298 1222.84 306.396 1241.93 323.188C1261.98 339.096 1272 360.307 1272 386.821Z" fill="#212527"/>
<rect x="2426" width="1600" height="1600" rx="222" fill="#677A7E"/>
<path d="M3593.46 599.391L3308.49 1302H3150.97L2866 599.391H3022.09L3232.6 1148.22L3445.96 599.391H3593.46Z" fill="#0F161A"/>
<path d="M3698 386.821C3698 411.567 3687.98 432.778 3667.93 450.454C3648.84 467.246 3624.02 475.642 3593.47 475.642C3561.96 475.642 3536.19 467.246 3516.14 450.454C3497.04 432.778 3487.5 411.567 3487.5 386.821C3487.5 360.307 3497.04 339.096 3516.14 323.188C3536.19 306.396 3561.96 298 3593.47 298C3624.02 298 3648.84 306.396 3667.93 323.188C3687.98 339.096 3698 360.307 3698 386.821Z" fill="#0F161A"/>
<rect x="4852" width="1600" height="1600" rx="222" fill="#0F161A"/>
<path d="M6019.46 599.391L5734.49 1302H5576.97L5292 599.391H5448.09L5658.6 1148.22L5871.96 599.391H6019.46Z" fill="#677A7E"/>
<path d="M6124 386.821C6124 411.567 6113.98 432.778 6093.93 450.454C6074.84 467.246 6050.02 475.642 6019.47 475.642C5987.96 475.642 5962.19 467.246 5942.14 450.454C5923.04 432.778 5913.5 411.567 5913.5 386.821C5913.5 360.307 5923.04 339.096 5942.14 323.188C5962.19 306.396 5987.96 298 6019.47 298C6050.02 298 6074.84 306.396 6093.93 323.188C6113.98 339.096 6124 360.307 6124 386.821Z" fill="#677A7E"/>
<rect x="7278" width="1600" height="1600" rx="222" fill="#F0FDFF"/>
<path d="M8445.46 599.391L8160.49 1302H8002.97L7718 599.391H7874.09L8084.6 1148.22L8297.96 599.391H8445.46Z" fill="#0F161A"/>
<path d="M8550 386.821C8550 411.567 8539.98 432.778 8519.93 450.454C8500.84 467.246 8476.02 475.642 8445.47 475.642C8413.96 475.642 8388.19 467.246 8368.14 450.454C8349.04 432.778 8339.5 411.567 8339.5 386.821C8339.5 360.307 8349.04 339.096 8368.14 323.188C8388.19 306.396 8413.96 298 8445.47 298C8476.02 298 8500.84 306.396 8519.93 323.188C8539.98 339.096 8550 360.307 8550 386.821Z" fill="#0F161A"/>
<rect x="9704" width="1600" height="1600" rx="222" fill="#C89867"/>
<path d="M10871.5 599.391L10586.5 1302H10429L10144 599.391H10300.1L10510.6 1148.22L10724 599.391H10871.5Z" fill="#302418"/>
<path d="M10976 386.821C10976 411.567 10966 432.778 10945.9 450.454C10926.8 467.246 10902 475.642 10871.5 475.642C10840 475.642 10814.2 467.246 10794.1 450.454C10775 432.778 10765.5 411.567 10765.5 386.821C10765.5 360.307 10775 339.096 10794.1 323.188C10814.2 306.396 10840 298 10871.5 298C10902 298 10926.8 306.396 10945.9 323.188C10966 339.096 10976 360.307 10976 386.821Z" fill="#302418"/>
<rect x="12130" width="1600" height="1600" rx="222" fill="#0F161A"/>
<path d="M13297.5 599.391L13012.5 1302H12855L12570 599.391H12726.1L12936.6 1148.22L13150 599.391H13297.5Z" fill="#F0FDFF"/>
<path d="M13402 386.821C13402 411.567 13392 432.778 13371.9 450.454C13352.8 467.246 13328 475.642 13297.5 475.642C13266 475.642 13240.2 467.246 13220.1 450.454C13201 432.778 13191.5 411.567 13191.5 386.821C13191.5 360.307 13201 339.096 13220.1 323.188C13240.2 306.396 13266 298 13297.5 298C13328 298 13352.8 306.396 13371.9 323.188C13392 339.096 13402 360.307 13402 386.821Z" fill="#F0FDFF"/>
<rect x="14556" width="1600" height="1600" rx="222" fill="#302418"/>
<path d="M15723.5 599.391L15438.5 1302H15281L14996 599.391H15152.1L15362.6 1148.22L15576 599.391H15723.5Z" fill="#F0E4D7"/>
<path d="M15828 386.821C15828 411.567 15818 432.778 15797.9 450.454C15778.8 467.246 15754 475.642 15723.5 475.642C15692 475.642 15666.2 467.246 15646.1 450.454C15627 432.778 15617.5 411.567 15617.5 386.821C15617.5 360.307 15627 339.096 15646.1 323.188C15666.2 306.396 15692 298 15723.5 298C15754 298 15778.8 306.396 15797.9 323.188C15818 339.096 15828 360.307 15828 386.821Z" fill="#F0E4D7"/>
</svg>
