<svg width="16000" height="6404" viewBox="0 0 16000 6404" fill="none" xmlns="http://www.w3.org/2000/svg">
<g clip-path="url(#clip0_597_1809)">
<rect x="7.25" width="4504.5" height="2583.75" rx="249.75" fill="white"/>
<path d="M1338.59 794.624L1094.29 1445.27H959.251L714.953 794.624H848.764L1029.23 1302.86L1212.14 794.624H1338.59Z" fill="#0F161A"/>
<path d="M1550.62 1445.27H1426.63V794.624H1550.62V1445.27ZM1577.63 643.626C1577.63 666.542 1569.04 686.184 1551.85 702.552C1535.48 718.102 1514.2 725.877 1488.01 725.877C1461 725.877 1438.91 718.102 1421.72 702.552C1405.35 686.184 1397.17 666.542 1397.17 643.626C1397.17 619.073 1405.35 599.431 1421.72 584.7C1438.91 569.15 1461 561.375 1488.01 561.375C1514.2 561.375 1535.48 569.15 1551.85 584.7C1569.04 599.431 1577.63 619.073 1577.63 643.626Z" fill="#0F161A"/>
<path d="M1676.1 1119.94C1676.1 1054.47 1687.96 996.364 1711.7 945.622C1735.43 894.061 1768.99 853.959 1812.36 825.314C1855.74 796.67 1906.48 782.348 1964.59 782.348C2007.97 782.348 2047.66 793.396 2083.67 815.493C2120.5 836.772 2150.37 867.054 2173.29 906.338V563.83H2297.28V1445.27H2181.88V1328.64C2158.96 1369.56 2128.27 1401.48 2089.81 1424.4C2052.16 1446.49 2010.42 1457.54 1964.59 1457.54C1906.48 1457.54 1855.74 1443.22 1812.36 1414.57C1768.99 1385.11 1735.43 1345.01 1711.7 1294.27C1687.96 1242.71 1676.1 1184.6 1676.1 1119.94ZM1805 1119.94C1805 1192.78 1822.18 1248.85 1856.56 1288.13C1890.93 1327.41 1935.13 1347.06 1989.14 1347.06C2025.15 1347.06 2056.66 1338.05 2083.67 1320.05C2111.5 1301.22 2133.18 1274.63 2148.73 1240.25C2165.1 1205.88 2173.29 1164.96 2173.29 1117.49C2173.29 1069.2 2165.1 1028.28 2148.73 994.727C2132.36 961.172 2110.27 935.801 2082.44 918.614C2054.62 900.609 2023.52 891.606 1989.14 891.606C1935.13 891.606 1890.93 911.248 1856.56 950.532C1822.18 989.816 1805 1046.29 1805 1119.94Z" fill="#0F161A"/>
<path d="M2422.98 1119.94C2422.98 1054.47 2434.85 996.364 2458.58 945.622C2482.32 894.061 2515.87 853.959 2559.25 825.314C2602.63 796.67 2653.37 782.348 2711.47 782.348C2754.85 782.348 2794.54 793.396 2830.55 815.493C2867.38 836.772 2897.26 867.054 2920.17 906.338V563.83H3044.16V1445.27H2928.76V1328.64C2905.85 1369.56 2875.16 1401.48 2836.69 1424.4C2799.05 1446.49 2757.31 1457.54 2711.47 1457.54C2653.37 1457.54 2602.63 1443.22 2559.25 1414.57C2515.87 1385.11 2482.32 1345.01 2458.58 1294.27C2434.85 1242.71 2422.98 1184.6 2422.98 1119.94ZM2551.88 1119.94C2551.88 1192.78 2569.07 1248.85 2603.44 1288.13C2637.82 1327.41 2682.01 1347.06 2736.03 1347.06C2772.04 1347.06 2803.55 1338.05 2830.55 1320.05C2858.38 1301.22 2880.07 1274.63 2895.62 1240.25C2911.99 1205.88 2920.17 1164.96 2920.17 1117.49C2920.17 1069.2 2911.99 1028.28 2895.62 994.727C2879.25 961.172 2857.15 935.801 2829.33 918.614C2801.5 900.609 2770.4 891.606 2736.03 891.606C2682.01 891.606 2637.82 911.248 2603.44 950.532C2569.07 989.816 2551.88 1046.29 2551.88 1119.94Z" fill="#0F161A"/>
<path d="M3484.14 1457.54C3421.12 1457.54 3365.88 1443.63 3318.41 1415.8C3271.76 1387.16 3235.34 1347.06 3209.15 1295.49C3182.96 1243.93 3169.87 1184.19 3169.87 1116.26C3169.87 1051.61 3183.37 994.318 3210.38 944.394C3237.39 894.471 3274.22 855.187 3320.87 826.542C3367.52 797.079 3420.71 782.348 3480.46 782.348C3529.56 782.348 3573.35 791.759 3611.81 810.583C3651.1 828.588 3684.24 854.368 3711.25 887.923C3739.08 920.66 3759.13 959.535 3771.4 1004.55C3783.68 1048.74 3786.95 1097.44 3781.23 1150.64H3242.3V1068.38H3649.87C3647.41 1007.82 3630.64 960.762 3599.54 927.207C3569.26 892.834 3528.74 875.647 3478 875.647C3441.17 875.647 3408.85 885.468 3381.02 905.11C3354.01 923.934 3332.73 951.351 3317.18 987.361C3302.45 1022.55 3295.09 1065.52 3295.09 1116.26C3295.09 1167 3302.45 1210.79 3317.18 1247.62C3331.91 1283.63 3353.19 1311.45 3381.02 1331.1C3408.85 1350.74 3442.4 1360.56 3481.68 1360.56C3528.33 1360.56 3566.8 1348.69 3597.08 1324.96C3628.18 1301.22 3648.64 1268.08 3658.46 1225.52H3781.23C3765.68 1297.54 3731.3 1354.42 3678.1 1396.16C3625.73 1437.08 3561.07 1457.54 3484.14 1457.54Z" fill="#0F161A"/>
<path d="M1067.28 2017.23H1029.53V1770.83H1067.28V1884.76L1171.61 1770.83H1215.19L1105.37 1891.63L1217.94 2017.23H1170.58L1067.28 1902.95V2017.23Z" fill="#677A7E"/>
<path d="M1357.28 2022.38C1339.43 2022.38 1322.84 2019.17 1307.52 2012.77C1292.42 2006.13 1279.15 1996.98 1267.71 1985.31C1256.5 1973.64 1247.69 1960.03 1241.28 1944.47C1235.11 1928.69 1232.02 1911.76 1232.02 1893.68C1232.02 1875.61 1235.11 1858.8 1241.28 1843.24C1247.69 1827.68 1256.5 1814.18 1267.71 1802.74C1279.15 1791.07 1292.42 1782.04 1307.52 1775.63C1322.84 1769 1339.43 1765.68 1357.28 1765.68C1375.12 1765.68 1391.59 1769 1406.69 1775.63C1422.02 1782.04 1435.29 1791.07 1446.5 1802.74C1457.94 1814.18 1466.75 1827.68 1472.93 1843.24C1479.33 1858.8 1482.54 1875.61 1482.54 1893.68C1482.54 1911.76 1479.33 1928.69 1472.93 1944.47C1466.75 1960.03 1457.94 1973.64 1446.5 1985.31C1435.29 1996.98 1422.02 2006.13 1406.69 2012.77C1391.59 2019.17 1375.12 2022.38 1357.28 2022.38ZM1357.28 1988.4C1370.32 1988.4 1382.1 1986 1392.62 1981.19C1403.15 1976.39 1412.18 1969.64 1419.73 1960.95C1427.51 1952.25 1433.35 1942.19 1437.24 1930.75C1441.35 1919.08 1443.41 1906.73 1443.41 1893.68C1443.41 1880.64 1441.35 1868.4 1437.24 1856.96C1433.35 1845.53 1427.51 1835.57 1419.73 1827.11C1412.18 1818.41 1403.15 1811.67 1392.62 1806.86C1382.1 1802.06 1370.32 1799.65 1357.28 1799.65C1344.24 1799.65 1332.45 1802.06 1321.93 1806.86C1311.4 1811.67 1302.25 1818.41 1294.47 1827.11C1286.92 1835.57 1281.09 1845.53 1276.97 1856.96C1273.08 1868.4 1271.14 1880.64 1271.14 1893.68C1271.14 1906.73 1273.08 1919.08 1276.97 1930.75C1281.09 1942.19 1286.92 1952.25 1294.47 1960.95C1302.25 1969.64 1311.4 1976.39 1321.93 1981.19C1332.45 1986 1344.24 1988.4 1357.28 1988.4Z" fill="#677A7E"/>
<path d="M1651.3 2017.23L1573.39 1828.82V2017.23H1538.73V1770.83H1585.06L1667.77 1970.9L1750.13 1770.83H1796.8V2017.23H1761.8V1828.48L1683.55 2017.23H1651.3Z" fill="#677A7E"/>
<path d="M1952.68 1931.43H1904.98V2017.23H1867.23V1770.83H1952.68C1970.99 1770.83 1986.89 1773.92 2000.38 1780.09C2014.11 1786.04 2024.75 1794.96 2032.3 1806.86C2039.85 1818.53 2043.62 1833.06 2043.62 1850.44C2043.62 1867.6 2039.85 1882.25 2032.3 1894.37C2024.75 1906.27 2014.11 1915.42 2000.38 1921.83C1986.89 1928.23 1970.99 1931.43 1952.68 1931.43ZM1952.34 1802.74H1904.98V1899.52H1952.34C1969.04 1899.52 1982.08 1895.17 1991.46 1886.48C2001.07 1877.78 2005.88 1865.89 2005.88 1850.79C2005.88 1835.46 2001.07 1823.68 1991.46 1815.44C1982.08 1806.98 1969.04 1802.74 1952.34 1802.74Z" fill="#677A7E"/>
<path d="M2254.69 1984.28V2017.23H2098.54V1770.83H2252.28V1803.77H2136.29V1873.78H2241.99V1906.73H2136.29V1984.28H2254.69Z" fill="#677A7E"/>
<path d="M2413.92 2017.23H2376.17V1804.8H2295.86V1770.83H2494.22V1804.8H2413.92V2017.23Z" fill="#677A7E"/>
<path d="M2560.37 1925.6H2674.99L2685.29 1956.14H2547.67L2560.37 1925.6ZM2692.15 2017.23L2616.99 1812.01L2540.81 2017.23H2502.72L2597.09 1770.83H2638.61L2732.3 2017.23H2692.15Z" fill="#677A7E"/>
<path d="M2948.15 2017.23L2818.42 1824.71V2017.23H2783.42V1770.83H2824.6L2951.23 1958.2V1770.83H2986.24V2017.23H2948.15Z" fill="#677A7E"/>
<path d="M3236.79 1945.16C3236.79 1959.35 3233.02 1972.16 3225.47 1983.6C3218.14 1995.04 3207.51 2004.07 3193.55 2010.71C3179.59 2017.34 3162.66 2020.66 3142.76 2020.66C3122.86 2020.66 3105.7 2017.34 3091.28 2010.71C3077.1 2003.84 3066 1994.24 3057.99 1981.88C3049.99 1969.53 3045.41 1955.23 3044.27 1938.98H3082.7C3083.62 1954.54 3089 1967.01 3098.83 1976.39C3108.9 1985.77 3123.31 1990.46 3142.07 1990.46C3152.6 1990.46 3161.98 1988.86 3170.21 1985.66C3178.45 1982.45 3184.86 1977.88 3189.43 1971.93C3194.24 1965.98 3196.64 1958.77 3196.64 1950.31C3196.64 1940.01 3193.21 1932.01 3186.34 1926.29C3179.48 1920.57 3168.96 1916.22 3154.77 1913.25L3119.08 1906.38C3110.39 1904.55 3102.04 1902.04 3094.03 1898.83C3086.25 1895.63 3079.16 1891.51 3072.75 1886.48C3066.57 1881.22 3061.66 1874.81 3057.99 1867.26C3054.56 1859.48 3052.85 1850.44 3052.85 1840.15C3052.85 1826.19 3056.51 1813.72 3063.83 1802.74C3071.38 1791.76 3081.67 1783.18 3094.71 1777C3107.98 1770.6 3123.2 1767.4 3140.36 1767.4C3157.52 1767.4 3172.84 1770.71 3186.34 1777.35C3200.07 1783.98 3211.05 1793.25 3219.29 1805.15C3227.75 1817.04 3232.44 1831.23 3233.36 1847.7H3194.92C3194.24 1837.86 3191.49 1829.17 3186.69 1821.62C3182.11 1814.07 3175.93 1808.23 3168.15 1804.12C3160.38 1799.77 3151.22 1797.6 3140.7 1797.6C3130.18 1797.6 3121.25 1799.54 3113.93 1803.43C3106.61 1807.09 3101.01 1812.01 3097.12 1818.19C3093.23 1824.13 3091.28 1830.65 3091.28 1837.75C3091.28 1845.53 3093.23 1851.82 3097.12 1856.62C3101.23 1861.2 3106.61 1864.86 3113.25 1867.6C3119.88 1870.35 3126.97 1872.52 3134.52 1874.12L3170.9 1881.33C3192.18 1885.68 3208.42 1892.77 3219.63 1902.61C3231.07 1912.45 3236.79 1926.63 3236.79 1945.16Z" fill="#677A7E"/>
<path d="M3453.8 1984.28V2017.23H3297.65V1770.83H3451.39V1803.77H3335.4V1873.78H3441.1V1906.73H3335.4V1984.28H3453.8Z" fill="#677A7E"/>
</g>
<g clip-path="url(#clip1_597_1809)">
<rect x="5747.75" width="4504.5" height="2583.75" rx="249.75" fill="#F0FDFF"/>
<path d="M7079.09 794.624L6834.79 1445.27H6699.75L6455.45 794.624H6589.26L6769.73 1302.86L6952.64 794.624H7079.09Z" fill="#0F161A"/>
<path d="M7291.12 1445.27H7167.13V794.624H7291.12V1445.27ZM7318.13 643.626C7318.13 666.542 7309.54 686.184 7292.35 702.552C7275.98 718.102 7254.7 725.877 7228.51 725.877C7201.5 725.877 7179.41 718.102 7162.22 702.552C7145.85 686.184 7137.67 666.542 7137.67 643.626C7137.67 619.073 7145.85 599.431 7162.22 584.7C7179.41 569.15 7201.5 561.375 7228.51 561.375C7254.7 561.375 7275.98 569.15 7292.35 584.7C7309.54 599.431 7318.13 619.073 7318.13 643.626Z" fill="#0F161A"/>
<path d="M7416.6 1119.94C7416.6 1054.47 7428.46 996.364 7452.2 945.622C7475.93 894.061 7509.49 853.959 7552.86 825.314C7596.24 796.67 7646.98 782.348 7705.09 782.348C7748.47 782.348 7788.16 793.396 7824.17 815.493C7861 836.772 7890.87 867.054 7913.79 906.338V563.83H8037.78V1445.27H7922.38V1328.64C7899.46 1369.56 7868.77 1401.48 7830.31 1424.4C7792.66 1446.49 7750.92 1457.54 7705.09 1457.54C7646.98 1457.54 7596.24 1443.22 7552.86 1414.57C7509.49 1385.11 7475.93 1345.01 7452.2 1294.27C7428.46 1242.71 7416.6 1184.6 7416.6 1119.94ZM7545.5 1119.94C7545.5 1192.78 7562.68 1248.85 7597.06 1288.13C7631.43 1327.41 7675.63 1347.06 7729.64 1347.06C7765.65 1347.06 7797.16 1338.05 7824.17 1320.05C7852 1301.22 7873.68 1274.63 7889.23 1240.25C7905.6 1205.88 7913.79 1164.96 7913.79 1117.49C7913.79 1069.2 7905.6 1028.28 7889.23 994.727C7872.86 961.172 7850.77 935.801 7822.94 918.614C7795.12 900.609 7764.02 891.606 7729.64 891.606C7675.63 891.606 7631.43 911.248 7597.06 950.532C7562.68 989.816 7545.5 1046.29 7545.5 1119.94Z" fill="#0F161A"/>
<path d="M8163.48 1119.94C8163.48 1054.47 8175.35 996.364 8199.08 945.622C8222.82 894.061 8256.37 853.959 8299.75 825.314C8343.13 796.67 8393.87 782.348 8451.97 782.348C8495.35 782.348 8535.04 793.396 8571.05 815.493C8607.88 836.772 8637.76 867.054 8660.67 906.338V563.83H8784.66V1445.27H8669.26V1328.64C8646.35 1369.56 8615.66 1401.48 8577.19 1424.4C8539.55 1446.49 8497.81 1457.54 8451.97 1457.54C8393.87 1457.54 8343.13 1443.22 8299.75 1414.57C8256.37 1385.11 8222.82 1345.01 8199.08 1294.27C8175.35 1242.71 8163.48 1184.6 8163.48 1119.94ZM8292.38 1119.94C8292.38 1192.78 8309.57 1248.85 8343.94 1288.13C8378.32 1327.41 8422.51 1347.06 8476.53 1347.06C8512.54 1347.06 8544.05 1338.05 8571.05 1320.05C8598.88 1301.22 8620.57 1274.63 8636.12 1240.25C8652.49 1205.88 8660.67 1164.96 8660.67 1117.49C8660.67 1069.2 8652.49 1028.28 8636.12 994.727C8619.75 961.172 8597.65 935.801 8569.83 918.614C8542 900.609 8510.9 891.606 8476.53 891.606C8422.51 891.606 8378.32 911.248 8343.94 950.532C8309.57 989.816 8292.38 1046.29 8292.38 1119.94Z" fill="#0F161A"/>
<path d="M9224.64 1457.54C9161.62 1457.54 9106.38 1443.63 9058.91 1415.8C9012.26 1387.16 8975.84 1347.06 8949.65 1295.49C8923.46 1243.93 8910.37 1184.19 8910.37 1116.26C8910.37 1051.61 8923.87 994.318 8950.88 944.394C8977.89 894.471 9014.72 855.187 9061.37 826.542C9108.02 797.079 9161.21 782.348 9220.96 782.348C9270.06 782.348 9313.85 791.759 9352.31 810.583C9391.6 828.588 9424.74 854.368 9451.75 887.923C9479.58 920.66 9499.63 959.535 9511.9 1004.55C9524.18 1048.74 9527.45 1097.44 9521.73 1150.64H8982.8V1068.38H9390.37C9387.91 1007.82 9371.14 960.762 9340.04 927.207C9309.76 892.834 9269.24 875.647 9218.5 875.647C9181.67 875.647 9149.35 885.468 9121.52 905.11C9094.51 923.934 9073.23 951.351 9057.68 987.361C9042.95 1022.55 9035.59 1065.52 9035.59 1116.26C9035.59 1167 9042.95 1210.79 9057.68 1247.62C9072.41 1283.63 9093.69 1311.45 9121.52 1331.1C9149.35 1350.74 9182.9 1360.56 9222.18 1360.56C9268.83 1360.56 9307.3 1348.69 9337.58 1324.96C9368.68 1301.22 9389.14 1268.08 9398.96 1225.52H9521.73C9506.18 1297.54 9471.8 1354.42 9418.6 1396.16C9366.23 1437.08 9301.57 1457.54 9224.64 1457.54Z" fill="#0F161A"/>
<path d="M6807.78 2017.23H6770.03V1770.83H6807.78V1884.76L6912.11 1770.83H6955.69L6845.87 1891.63L6958.44 2017.23H6911.08L6807.78 1902.95V2017.23Z" fill="#0F161A"/>
<path d="M7097.78 2022.38C7079.93 2022.38 7063.34 2019.17 7048.02 2012.77C7032.92 2006.13 7019.65 1996.98 7008.21 1985.31C6997 1973.64 6988.19 1960.03 6981.78 1944.47C6975.61 1928.69 6972.52 1911.76 6972.52 1893.68C6972.52 1875.61 6975.61 1858.8 6981.78 1843.24C6988.19 1827.68 6997 1814.18 7008.21 1802.74C7019.65 1791.07 7032.92 1782.04 7048.02 1775.63C7063.34 1769 7079.93 1765.68 7097.78 1765.68C7115.62 1765.68 7132.09 1769 7147.19 1775.63C7162.52 1782.04 7175.79 1791.07 7187 1802.74C7198.44 1814.18 7207.25 1827.68 7213.43 1843.24C7219.83 1858.8 7223.04 1875.61 7223.04 1893.68C7223.04 1911.76 7219.83 1928.69 7213.43 1944.47C7207.25 1960.03 7198.44 1973.64 7187 1985.31C7175.79 1996.98 7162.52 2006.13 7147.19 2012.77C7132.09 2019.17 7115.62 2022.38 7097.78 2022.38ZM7097.78 1988.4C7110.82 1988.4 7122.6 1986 7133.12 1981.19C7143.65 1976.39 7152.68 1969.64 7160.23 1960.95C7168.01 1952.25 7173.85 1942.19 7177.74 1930.75C7181.85 1919.08 7183.91 1906.73 7183.91 1893.68C7183.91 1880.64 7181.85 1868.4 7177.74 1856.96C7173.85 1845.53 7168.01 1835.57 7160.23 1827.11C7152.68 1818.41 7143.65 1811.67 7133.12 1806.86C7122.6 1802.06 7110.82 1799.65 7097.78 1799.65C7084.74 1799.65 7072.95 1802.06 7062.43 1806.86C7051.9 1811.67 7042.75 1818.41 7034.97 1827.11C7027.42 1835.57 7021.59 1845.53 7017.47 1856.96C7013.58 1868.4 7011.64 1880.64 7011.64 1893.68C7011.64 1906.73 7013.58 1919.08 7017.47 1930.75C7021.59 1942.19 7027.42 1952.25 7034.97 1960.95C7042.75 1969.64 7051.9 1976.39 7062.43 1981.19C7072.95 1986 7084.74 1988.4 7097.78 1988.4Z" fill="#0F161A"/>
<path d="M7391.8 2017.23L7313.89 1828.82V2017.23H7279.23V1770.83H7325.56L7408.27 1970.9L7490.63 1770.83H7537.3V2017.23H7502.3V1828.48L7424.05 2017.23H7391.8Z" fill="#0F161A"/>
<path d="M7693.18 1931.43H7645.48V2017.23H7607.73V1770.83H7693.18C7711.49 1770.83 7727.39 1773.92 7740.88 1780.09C7754.61 1786.04 7765.25 1794.96 7772.8 1806.86C7780.35 1818.53 7784.12 1833.06 7784.12 1850.44C7784.12 1867.6 7780.35 1882.25 7772.8 1894.37C7765.25 1906.27 7754.61 1915.42 7740.88 1921.83C7727.39 1928.23 7711.49 1931.43 7693.18 1931.43ZM7692.84 1802.74H7645.48V1899.52H7692.84C7709.54 1899.52 7722.58 1895.17 7731.96 1886.48C7741.57 1877.78 7746.38 1865.89 7746.38 1850.79C7746.38 1835.46 7741.57 1823.68 7731.96 1815.44C7722.58 1806.98 7709.54 1802.74 7692.84 1802.74Z" fill="#0F161A"/>
<path d="M7995.19 1984.28V2017.23H7839.04V1770.83H7992.78V1803.77H7876.79V1873.78H7982.49V1906.73H7876.79V1984.28H7995.19Z" fill="#0F161A"/>
<path d="M8154.42 2017.23H8116.67V1804.8H8036.36V1770.83H8234.72V1804.8H8154.42V2017.23Z" fill="#0F161A"/>
<path d="M8300.87 1925.6H8415.49L8425.79 1956.14H8288.17L8300.87 1925.6ZM8432.65 2017.23L8357.49 1812.01L8281.31 2017.23H8243.22L8337.59 1770.83H8379.11L8472.8 2017.23H8432.65Z" fill="#0F161A"/>
<path d="M8688.65 2017.23L8558.92 1824.71V2017.23H8523.92V1770.83H8565.1L8691.73 1958.2V1770.83H8726.74V2017.23H8688.65Z" fill="#0F161A"/>
<path d="M8977.29 1945.16C8977.29 1959.35 8973.52 1972.16 8965.97 1983.6C8958.64 1995.04 8948.01 2004.07 8934.05 2010.71C8920.09 2017.34 8903.16 2020.66 8883.26 2020.66C8863.36 2020.66 8846.2 2017.34 8831.78 2010.71C8817.6 2003.84 8806.5 1994.24 8798.49 1981.88C8790.49 1969.53 8785.91 1955.23 8784.77 1938.98H8823.2C8824.12 1954.54 8829.5 1967.01 8839.33 1976.39C8849.4 1985.77 8863.81 1990.46 8882.57 1990.46C8893.1 1990.46 8902.48 1988.86 8910.71 1985.66C8918.95 1982.45 8925.36 1977.88 8929.93 1971.93C8934.74 1965.98 8937.14 1958.77 8937.14 1950.31C8937.14 1940.01 8933.71 1932.01 8926.84 1926.29C8919.98 1920.57 8909.46 1916.22 8895.27 1913.25L8859.58 1906.38C8850.89 1904.55 8842.54 1902.04 8834.53 1898.83C8826.75 1895.63 8819.66 1891.51 8813.25 1886.48C8807.07 1881.22 8802.16 1874.81 8798.49 1867.26C8795.06 1859.48 8793.35 1850.44 8793.35 1840.15C8793.35 1826.19 8797.01 1813.72 8804.33 1802.74C8811.88 1791.76 8822.17 1783.18 8835.21 1777C8848.48 1770.6 8863.7 1767.4 8880.86 1767.4C8898.02 1767.4 8913.34 1770.71 8926.84 1777.35C8940.57 1783.98 8951.55 1793.25 8959.79 1805.15C8968.25 1817.04 8972.94 1831.23 8973.86 1847.7H8935.42C8934.74 1837.86 8931.99 1829.17 8927.19 1821.62C8922.61 1814.07 8916.43 1808.23 8908.65 1804.12C8900.88 1799.77 8891.72 1797.6 8881.2 1797.6C8870.68 1797.6 8861.75 1799.54 8854.43 1803.43C8847.11 1807.09 8841.51 1812.01 8837.62 1818.19C8833.73 1824.13 8831.78 1830.65 8831.78 1837.75C8831.78 1845.53 8833.73 1851.82 8837.62 1856.62C8841.73 1861.2 8847.11 1864.86 8853.75 1867.6C8860.38 1870.35 8867.47 1872.52 8875.02 1874.12L8911.4 1881.33C8932.68 1885.68 8948.92 1892.77 8960.13 1902.61C8971.57 1912.45 8977.29 1926.63 8977.29 1945.16Z" fill="#0F161A"/>
<path d="M9194.3 1984.28V2017.23H9038.15V1770.83H9191.89V1803.77H9075.9V1873.78H9181.6V1906.73H9075.9V1984.28H9194.3Z" fill="#0F161A"/>
</g>
<g clip-path="url(#clip2_597_1809)">
<rect x="11488.2" width="4504.5" height="2583.75" rx="249.75" fill="#C89867"/>
<path d="M12819.6 794.624L12575.3 1445.27H12440.3L12196 794.624H12329.8L12510.2 1302.86L12693.1 794.624H12819.6Z" fill="#302418"/>
<path d="M13031.6 1445.27H12907.6V794.624H13031.6V1445.27ZM13058.6 643.626C13058.6 666.542 13050 686.184 13032.8 702.552C13016.5 718.102 12995.2 725.877 12969 725.877C12942 725.877 12919.9 718.102 12902.7 702.552C12886.4 686.184 12878.2 666.542 12878.2 643.626C12878.2 619.073 12886.4 599.431 12902.7 584.7C12919.9 569.15 12942 561.375 12969 561.375C12995.2 561.375 13016.5 569.15 13032.8 584.7C13050 599.431 13058.6 619.073 13058.6 643.626Z" fill="#302418"/>
<path d="M13157.1 1119.94C13157.1 1054.47 13169 996.364 13192.7 945.622C13216.4 894.061 13250 853.959 13293.4 825.314C13336.7 796.67 13387.5 782.348 13445.6 782.348C13489 782.348 13528.7 793.396 13564.7 815.493C13601.5 836.772 13631.4 867.054 13654.3 906.338V563.83H13778.3V1445.27H13662.9V1328.64C13640 1369.56 13609.3 1401.48 13570.8 1424.4C13533.2 1446.49 13491.4 1457.54 13445.6 1457.54C13387.5 1457.54 13336.7 1443.22 13293.4 1414.57C13250 1385.11 13216.4 1345.01 13192.7 1294.27C13169 1242.71 13157.1 1184.6 13157.1 1119.94ZM13286 1119.94C13286 1192.78 13303.2 1248.85 13337.6 1288.13C13371.9 1327.41 13416.1 1347.06 13470.1 1347.06C13506.2 1347.06 13537.7 1338.05 13564.7 1320.05C13592.5 1301.22 13614.2 1274.63 13629.7 1240.25C13646.1 1205.88 13654.3 1164.96 13654.3 1117.49C13654.3 1069.2 13646.1 1028.28 13629.7 994.727C13613.4 961.172 13591.3 935.801 13563.4 918.614C13535.6 900.609 13504.5 891.606 13470.1 891.606C13416.1 891.606 13371.9 911.248 13337.6 950.532C13303.2 989.816 13286 1046.29 13286 1119.94Z" fill="#302418"/>
<path d="M13904 1119.94C13904 1054.47 13915.8 996.364 13939.6 945.622C13963.3 894.061 13996.9 853.959 14040.2 825.314C14083.6 796.67 14134.4 782.348 14192.5 782.348C14235.9 782.348 14275.5 793.396 14311.6 815.493C14348.4 836.772 14378.3 867.054 14401.2 906.338V563.83H14525.2V1445.27H14409.8V1328.64C14386.8 1369.56 14356.2 1401.48 14317.7 1424.4C14280 1446.49 14238.3 1457.54 14192.5 1457.54C14134.4 1457.54 14083.6 1443.22 14040.2 1414.57C13996.9 1385.11 13963.3 1345.01 13939.6 1294.27C13915.8 1242.71 13904 1184.6 13904 1119.94ZM14032.9 1119.94C14032.9 1192.78 14050.1 1248.85 14084.4 1288.13C14118.8 1327.41 14163 1347.06 14217 1347.06C14253 1347.06 14284.5 1338.05 14311.6 1320.05C14339.4 1301.22 14361.1 1274.63 14376.6 1240.25C14393 1205.88 14401.2 1164.96 14401.2 1117.49C14401.2 1069.2 14393 1028.28 14376.6 994.727C14360.3 961.172 14338.2 935.801 14310.3 918.614C14282.5 900.609 14251.4 891.606 14217 891.606C14163 891.606 14118.8 911.248 14084.4 950.532C14050.1 989.816 14032.9 1046.29 14032.9 1119.94Z" fill="#302418"/>
<path d="M14965.1 1457.54C14902.1 1457.54 14846.9 1443.63 14799.4 1415.8C14752.8 1387.16 14716.3 1347.06 14690.2 1295.49C14664 1243.93 14650.9 1184.19 14650.9 1116.26C14650.9 1051.61 14664.4 994.318 14691.4 944.394C14718.4 894.471 14755.2 855.187 14801.9 826.542C14848.5 797.079 14901.7 782.348 14961.5 782.348C15010.6 782.348 15054.3 791.759 15092.8 810.583C15132.1 828.588 15165.2 854.368 15192.3 887.923C15220.1 920.66 15240.1 959.535 15252.4 1004.55C15264.7 1048.74 15268 1097.44 15262.2 1150.64H14723.3V1068.38H15130.9C15128.4 1007.82 15111.6 960.762 15080.5 927.207C15050.3 892.834 15009.7 875.647 14959 875.647C14922.2 875.647 14889.8 885.468 14862 905.11C14835 923.934 14813.7 951.351 14798.2 987.361C14783.5 1022.55 14776.1 1065.52 14776.1 1116.26C14776.1 1167 14783.5 1210.79 14798.2 1247.62C14812.9 1283.63 14834.2 1311.45 14862 1331.1C14889.8 1350.74 14923.4 1360.56 14962.7 1360.56C15009.3 1360.56 15047.8 1348.69 15078.1 1324.96C15109.2 1301.22 15129.6 1268.08 15139.5 1225.52H15262.2C15246.7 1297.54 15212.3 1354.42 15159.1 1396.16C15106.7 1437.08 15042.1 1457.54 14965.1 1457.54Z" fill="#302418"/>
<path d="M12548.3 2017.23H12510.5V1770.83H12548.3V1884.76L12652.6 1770.83H12696.2L12586.4 1891.63L12698.9 2017.23H12651.6L12548.3 1902.95V2017.23Z" fill="#302418"/>
<path d="M12838.3 2022.38C12820.4 2022.38 12803.8 2019.17 12788.5 2012.77C12773.4 2006.13 12760.1 1996.98 12748.7 1985.31C12737.5 1973.64 12728.7 1960.03 12722.3 1944.47C12716.1 1928.69 12713 1911.76 12713 1893.68C12713 1875.61 12716.1 1858.8 12722.3 1843.24C12728.7 1827.68 12737.5 1814.18 12748.7 1802.74C12760.1 1791.07 12773.4 1782.04 12788.5 1775.63C12803.8 1769 12820.4 1765.68 12838.3 1765.68C12856.1 1765.68 12872.6 1769 12887.7 1775.63C12903 1782.04 12916.3 1791.07 12927.5 1802.74C12938.9 1814.18 12947.7 1827.68 12953.9 1843.24C12960.3 1858.8 12963.5 1875.61 12963.5 1893.68C12963.5 1911.76 12960.3 1928.69 12953.9 1944.47C12947.7 1960.03 12938.9 1973.64 12927.5 1985.31C12916.3 1996.98 12903 2006.13 12887.7 2012.77C12872.6 2019.17 12856.1 2022.38 12838.3 2022.38ZM12838.3 1988.4C12851.3 1988.4 12863.1 1986 12873.6 1981.19C12884.1 1976.39 12893.2 1969.64 12900.7 1960.95C12908.5 1952.25 12914.3 1942.19 12918.2 1930.75C12922.4 1919.08 12924.4 1906.73 12924.4 1893.68C12924.4 1880.64 12922.4 1868.4 12918.2 1856.96C12914.3 1845.53 12908.5 1835.57 12900.7 1827.11C12893.2 1818.41 12884.1 1811.67 12873.6 1806.86C12863.1 1802.06 12851.3 1799.65 12838.3 1799.65C12825.2 1799.65 12813.5 1802.06 12802.9 1806.86C12792.4 1811.67 12783.3 1818.41 12775.5 1827.11C12767.9 1835.57 12762.1 1845.53 12758 1856.96C12754.1 1868.4 12752.1 1880.64 12752.1 1893.68C12752.1 1906.73 12754.1 1919.08 12758 1930.75C12762.1 1942.19 12767.9 1952.25 12775.5 1960.95C12783.3 1969.64 12792.4 1976.39 12802.9 1981.19C12813.5 1986 12825.2 1988.4 12838.3 1988.4Z" fill="#302418"/>
<path d="M13132.3 2017.23L13054.4 1828.82V2017.23H13019.7V1770.83H13066.1L13148.8 1970.9L13231.1 1770.83H13277.8V2017.23H13242.8V1828.48L13164.6 2017.23H13132.3Z" fill="#302418"/>
<path d="M13433.7 1931.43H13386V2017.23H13348.2V1770.83H13433.7C13452 1770.83 13467.9 1773.92 13481.4 1780.09C13495.1 1786.04 13505.8 1794.96 13513.3 1806.86C13520.8 1818.53 13524.6 1833.06 13524.6 1850.44C13524.6 1867.6 13520.8 1882.25 13513.3 1894.37C13505.8 1906.27 13495.1 1915.42 13481.4 1921.83C13467.9 1928.23 13452 1931.43 13433.7 1931.43ZM13433.3 1802.74H13386V1899.52H13433.3C13450 1899.52 13463.1 1895.17 13472.5 1886.48C13482.1 1877.78 13486.9 1865.89 13486.9 1850.79C13486.9 1835.46 13482.1 1823.68 13472.5 1815.44C13463.1 1806.98 13450 1802.74 13433.3 1802.74Z" fill="#302418"/>
<path d="M13735.7 1984.28V2017.23H13579.5V1770.83H13733.3V1803.77H13617.3V1873.78H13723V1906.73H13617.3V1984.28H13735.7Z" fill="#302418"/>
<path d="M13894.9 2017.23H13857.2V1804.8H13776.9V1770.83H13975.2V1804.8H13894.9V2017.23Z" fill="#302418"/>
<path d="M14041.4 1925.6H14156L14166.3 1956.14H14028.7L14041.4 1925.6ZM14173.1 2017.23L14098 1812.01L14021.8 2017.23H13983.7L14078.1 1770.83H14119.6L14213.3 2017.23H14173.1Z" fill="#302418"/>
<path d="M14429.1 2017.23L14299.4 1824.71V2017.23H14264.4V1770.83H14305.6L14432.2 1958.2V1770.83H14467.2V2017.23H14429.1Z" fill="#302418"/>
<path d="M14717.8 1945.16C14717.8 1959.35 14714 1972.16 14706.5 1983.6C14699.1 1995.04 14688.5 2004.07 14674.5 2010.71C14660.6 2017.34 14643.7 2020.66 14623.8 2020.66C14603.9 2020.66 14586.7 2017.34 14572.3 2010.71C14558.1 2003.84 14547 1994.24 14539 1981.88C14531 1969.53 14526.4 1955.23 14525.3 1938.98H14563.7C14564.6 1954.54 14570 1967.01 14579.8 1976.39C14589.9 1985.77 14604.3 1990.46 14623.1 1990.46C14633.6 1990.46 14643 1988.86 14651.2 1985.66C14659.4 1982.45 14665.9 1977.88 14670.4 1971.93C14675.2 1965.98 14677.6 1958.77 14677.6 1950.31C14677.6 1940.01 14674.2 1932.01 14667.3 1926.29C14660.5 1920.57 14650 1916.22 14635.8 1913.25L14600.1 1906.38C14591.4 1904.55 14583 1902.04 14575 1898.83C14567.2 1895.63 14560.2 1891.51 14553.8 1886.48C14547.6 1881.22 14542.7 1874.81 14539 1867.26C14535.6 1859.48 14533.8 1850.44 14533.8 1840.15C14533.8 1826.19 14537.5 1813.72 14544.8 1802.74C14552.4 1791.76 14562.7 1783.18 14575.7 1777C14589 1770.6 14604.2 1767.4 14621.4 1767.4C14638.5 1767.4 14653.8 1770.71 14667.3 1777.35C14681.1 1783.98 14692.1 1793.25 14700.3 1805.15C14708.8 1817.04 14713.4 1831.23 14714.4 1847.7H14675.9C14675.2 1837.86 14672.5 1829.17 14667.7 1821.62C14663.1 1814.07 14656.9 1808.23 14649.2 1804.12C14641.4 1799.77 14632.2 1797.6 14621.7 1797.6C14611.2 1797.6 14602.3 1799.54 14594.9 1803.43C14587.6 1807.09 14582 1812.01 14578.1 1818.19C14574.2 1824.13 14572.3 1830.65 14572.3 1837.75C14572.3 1845.53 14574.2 1851.82 14578.1 1856.62C14582.2 1861.2 14587.6 1864.86 14594.2 1867.6C14600.9 1870.35 14608 1872.52 14615.5 1874.12L14651.9 1881.33C14673.2 1885.68 14689.4 1892.77 14700.6 1902.61C14712.1 1912.45 14717.8 1926.63 14717.8 1945.16Z" fill="#302418"/>
<path d="M14934.8 1984.28V2017.23H14778.6V1770.83H14932.4V1803.77H14816.4V1873.78H14922.1V1906.73H14816.4V1984.28H14934.8Z" fill="#302418"/>
</g>
<g clip-path="url(#clip3_597_1809)">
<rect x="7.25" y="3819.75" width="4504.5" height="2583.75" rx="249.75" fill="white"/>
<path d="M1339.34 4898.37L1095.04 5549.02H960.001L715.703 4898.37H849.514L1029.98 5406.61L1212.89 4898.37H1339.34Z" fill="#0F161A"/>
<path d="M1551.37 5549.02H1427.38V4898.37H1551.37V5549.02ZM1578.38 4747.38C1578.38 4770.29 1569.79 4789.93 1552.6 4806.3C1536.23 4821.85 1514.95 4829.63 1488.76 4829.63C1461.75 4829.63 1439.66 4821.85 1422.47 4806.3C1406.1 4789.93 1397.92 4770.29 1397.92 4747.38C1397.92 4722.82 1406.1 4703.18 1422.47 4688.45C1439.66 4672.9 1461.75 4665.12 1488.76 4665.12C1514.95 4665.12 1536.23 4672.9 1552.6 4688.45C1569.79 4703.18 1578.38 4722.82 1578.38 4747.38Z" fill="#0F161A"/>
<path d="M1676.85 5223.69C1676.85 5158.22 1688.71 5100.11 1712.45 5049.37C1736.18 4997.81 1769.74 4957.71 1813.11 4929.06C1856.49 4900.42 1907.23 4886.1 1965.34 4886.1C2008.72 4886.1 2048.41 4897.15 2084.42 4919.24C2121.25 4940.52 2151.12 4970.8 2174.04 5010.09V4667.58H2298.03V5549.02H2182.63V5432.39C2159.71 5473.31 2129.02 5505.23 2090.56 5528.15C2052.91 5550.24 2011.17 5561.29 1965.34 5561.29C1907.23 5561.29 1856.49 5546.97 1813.11 5518.32C1769.74 5488.86 1736.18 5448.76 1712.45 5398.02C1688.71 5346.46 1676.85 5288.35 1676.85 5223.69ZM1805.75 5223.69C1805.75 5296.53 1822.93 5352.6 1857.31 5391.88C1891.68 5431.16 1935.88 5450.81 1989.89 5450.81C2025.9 5450.81 2057.41 5441.8 2084.42 5423.8C2112.25 5404.97 2133.93 5378.38 2149.48 5344C2165.85 5309.63 2174.04 5268.71 2174.04 5221.24C2174.04 5172.95 2165.85 5132.03 2149.48 5098.48C2133.11 5064.92 2111.02 5039.55 2083.19 5022.36C2055.37 5004.36 2024.27 4995.36 1989.89 4995.36C1935.88 4995.36 1891.68 5015 1857.31 5054.28C1822.93 5093.57 1805.75 5150.04 1805.75 5223.69Z" fill="#0F161A"/>
<path d="M2423.73 5223.69C2423.73 5158.22 2435.6 5100.11 2459.33 5049.37C2483.07 4997.81 2516.62 4957.71 2560 4929.06C2603.38 4900.42 2654.12 4886.1 2712.22 4886.1C2755.6 4886.1 2795.29 4897.15 2831.3 4919.24C2868.13 4940.52 2898.01 4970.8 2920.92 5010.09V4667.58H3044.91V5549.02H2929.51V5432.39C2906.6 5473.31 2875.91 5505.23 2837.44 5528.15C2799.8 5550.24 2758.06 5561.29 2712.22 5561.29C2654.12 5561.29 2603.38 5546.97 2560 5518.32C2516.62 5488.86 2483.07 5448.76 2459.33 5398.02C2435.6 5346.46 2423.73 5288.35 2423.73 5223.69ZM2552.63 5223.69C2552.63 5296.53 2569.82 5352.6 2604.19 5391.88C2638.57 5431.16 2682.76 5450.81 2736.78 5450.81C2772.79 5450.81 2804.3 5441.8 2831.3 5423.8C2859.13 5404.97 2880.82 5378.38 2896.37 5344C2912.74 5309.63 2920.92 5268.71 2920.92 5221.24C2920.92 5172.95 2912.74 5132.03 2896.37 5098.48C2880 5064.92 2857.9 5039.55 2830.08 5022.36C2802.25 5004.36 2771.15 4995.36 2736.78 4995.36C2682.76 4995.36 2638.57 5015 2604.19 5054.28C2569.82 5093.57 2552.63 5150.04 2552.63 5223.69Z" fill="#0F161A"/>
<path d="M3484.89 5561.29C3421.87 5561.29 3366.63 5547.38 3319.16 5519.55C3272.51 5490.91 3236.09 5450.81 3209.9 5399.24C3183.71 5347.68 3170.62 5287.94 3170.62 5220.01C3170.62 5155.36 3184.12 5098.07 3211.13 5048.14C3238.14 4998.22 3274.97 4958.94 3321.62 4930.29C3368.27 4900.83 3421.46 4886.1 3481.21 4886.1C3530.31 4886.1 3574.1 4895.51 3612.56 4914.33C3651.85 4932.34 3684.99 4958.12 3712 4991.67C3739.83 5024.41 3759.88 5063.28 3772.15 5108.3C3784.43 5152.49 3787.7 5201.19 3781.98 5254.39H3243.05V5172.13H3650.62C3648.16 5111.57 3631.39 5064.51 3600.29 5030.96C3570.01 4996.58 3529.49 4979.4 3478.75 4979.4C3441.92 4979.4 3409.6 4989.22 3381.77 5008.86C3354.76 5027.68 3333.48 5055.1 3317.93 5091.11C3303.2 5126.3 3295.84 5169.27 3295.84 5220.01C3295.84 5270.75 3303.2 5314.54 3317.93 5351.37C3332.66 5387.38 3353.94 5415.2 3381.77 5434.85C3409.6 5454.49 3443.15 5464.31 3482.43 5464.31C3529.08 5464.31 3567.55 5452.44 3597.83 5428.71C3628.93 5404.97 3649.39 5371.83 3659.21 5329.27H3781.98C3766.43 5401.29 3732.05 5458.17 3678.85 5499.91C3626.48 5540.83 3561.82 5561.29 3484.89 5561.29Z" fill="#0F161A"/>
</g>
<g clip-path="url(#clip4_597_1809)">
<rect x="5747.75" y="3819.75" width="4504.5" height="2583.75" rx="249.75" fill="#F0FDFF"/>
<path d="M7079.84 4898.37L6835.54 5549.02H6700.5L6456.2 4898.37H6590.01L6770.48 5406.61L6953.39 4898.37H7079.84Z" fill="#0F161A"/>
<path d="M7291.87 5549.02H7167.88V4898.37H7291.87V5549.02ZM7318.88 4747.38C7318.88 4770.29 7310.29 4789.93 7293.1 4806.3C7276.73 4821.85 7255.45 4829.63 7229.26 4829.63C7202.25 4829.63 7180.16 4821.85 7162.97 4806.3C7146.6 4789.93 7138.42 4770.29 7138.42 4747.38C7138.42 4722.82 7146.6 4703.18 7162.97 4688.45C7180.16 4672.9 7202.25 4665.12 7229.26 4665.12C7255.45 4665.12 7276.73 4672.9 7293.1 4688.45C7310.29 4703.18 7318.88 4722.82 7318.88 4747.38Z" fill="#0F161A"/>
<path d="M7417.35 5223.69C7417.35 5158.22 7429.21 5100.11 7452.95 5049.37C7476.68 4997.81 7510.24 4957.71 7553.61 4929.06C7596.99 4900.42 7647.73 4886.1 7705.84 4886.1C7749.22 4886.1 7788.91 4897.15 7824.92 4919.24C7861.75 4940.52 7891.62 4970.8 7914.54 5010.09V4667.58H8038.53V5549.02H7923.13V5432.39C7900.21 5473.31 7869.52 5505.23 7831.06 5528.15C7793.41 5550.24 7751.67 5561.29 7705.84 5561.29C7647.73 5561.29 7596.99 5546.97 7553.61 5518.32C7510.24 5488.86 7476.68 5448.76 7452.95 5398.02C7429.21 5346.46 7417.35 5288.35 7417.35 5223.69ZM7546.25 5223.69C7546.25 5296.53 7563.43 5352.6 7597.81 5391.88C7632.18 5431.16 7676.38 5450.81 7730.39 5450.81C7766.4 5450.81 7797.91 5441.8 7824.92 5423.8C7852.75 5404.97 7874.43 5378.38 7889.98 5344C7906.35 5309.63 7914.54 5268.71 7914.54 5221.24C7914.54 5172.95 7906.35 5132.03 7889.98 5098.48C7873.61 5064.92 7851.52 5039.55 7823.69 5022.36C7795.87 5004.36 7764.77 4995.36 7730.39 4995.36C7676.38 4995.36 7632.18 5015 7597.81 5054.28C7563.43 5093.57 7546.25 5150.04 7546.25 5223.69Z" fill="#0F161A"/>
<path d="M8164.23 5223.69C8164.23 5158.22 8176.1 5100.11 8199.83 5049.37C8223.57 4997.81 8257.12 4957.71 8300.5 4929.06C8343.88 4900.42 8394.62 4886.1 8452.72 4886.1C8496.1 4886.1 8535.79 4897.15 8571.8 4919.24C8608.63 4940.52 8638.51 4970.8 8661.42 5010.09V4667.58H8785.41V5549.02H8670.01V5432.39C8647.1 5473.31 8616.41 5505.23 8577.94 5528.15C8540.3 5550.24 8498.56 5561.29 8452.72 5561.29C8394.62 5561.29 8343.88 5546.97 8300.5 5518.32C8257.12 5488.86 8223.57 5448.76 8199.83 5398.02C8176.1 5346.46 8164.23 5288.35 8164.23 5223.69ZM8293.13 5223.69C8293.13 5296.53 8310.32 5352.6 8344.69 5391.88C8379.07 5431.16 8423.26 5450.81 8477.28 5450.81C8513.29 5450.81 8544.8 5441.8 8571.8 5423.8C8599.63 5404.97 8621.32 5378.38 8636.87 5344C8653.24 5309.63 8661.42 5268.71 8661.42 5221.24C8661.42 5172.95 8653.24 5132.03 8636.87 5098.48C8620.5 5064.92 8598.4 5039.55 8570.58 5022.36C8542.75 5004.36 8511.65 4995.36 8477.28 4995.36C8423.26 4995.36 8379.07 5015 8344.69 5054.28C8310.32 5093.57 8293.13 5150.04 8293.13 5223.69Z" fill="#0F161A"/>
<path d="M9225.39 5561.29C9162.37 5561.29 9107.13 5547.38 9059.66 5519.55C9013.01 5490.91 8976.59 5450.81 8950.4 5399.24C8924.21 5347.68 8911.12 5287.94 8911.12 5220.01C8911.12 5155.36 8924.62 5098.07 8951.63 5048.14C8978.64 4998.22 9015.47 4958.94 9062.12 4930.29C9108.77 4900.83 9161.96 4886.1 9221.71 4886.1C9270.81 4886.1 9314.6 4895.51 9353.06 4914.33C9392.35 4932.34 9425.49 4958.12 9452.5 4991.67C9480.33 5024.41 9500.38 5063.28 9512.65 5108.3C9524.93 5152.49 9528.2 5201.19 9522.48 5254.39H8983.55V5172.13H9391.12C9388.66 5111.57 9371.89 5064.51 9340.79 5030.96C9310.51 4996.58 9269.99 4979.4 9219.25 4979.4C9182.42 4979.4 9150.1 4989.22 9122.27 5008.86C9095.26 5027.68 9073.98 5055.1 9058.43 5091.11C9043.7 5126.3 9036.34 5169.27 9036.34 5220.01C9036.34 5270.75 9043.7 5314.54 9058.43 5351.37C9073.16 5387.38 9094.44 5415.2 9122.27 5434.85C9150.1 5454.49 9183.65 5464.31 9222.93 5464.31C9269.58 5464.31 9308.05 5452.44 9338.33 5428.71C9369.43 5404.97 9389.89 5371.83 9399.71 5329.27H9522.48C9506.93 5401.29 9472.55 5458.17 9419.35 5499.91C9366.98 5540.83 9302.32 5561.29 9225.39 5561.29Z" fill="#0F161A"/>
</g>
<g clip-path="url(#clip5_597_1809)">
<rect x="11488.2" y="3819.75" width="4504.5" height="2583.75" rx="249.75" fill="#C89867"/>
<path d="M12820.3 4898.87L12576 5549.52H12441L12196.7 4898.87H12330.5L12511 5407.11L12693.9 4898.87H12820.3Z" fill="#302418"/>
<path d="M13032.4 5549.52H12908.4V4898.87H13032.4V5549.52ZM13059.4 4747.88C13059.4 4770.79 13050.8 4790.43 13033.6 4806.8C13017.2 4822.35 12996 4830.13 12969.8 4830.13C12942.8 4830.13 12920.7 4822.35 12903.5 4806.8C12887.1 4790.43 12878.9 4770.79 12878.9 4747.88C12878.9 4723.32 12887.1 4703.68 12903.5 4688.95C12920.7 4673.4 12942.8 4665.62 12969.8 4665.62C12996 4665.62 13017.2 4673.4 13033.6 4688.95C13050.8 4703.68 13059.4 4723.32 13059.4 4747.88Z" fill="#302418"/>
<path d="M13157.8 5224.19C13157.8 5158.72 13169.7 5100.61 13193.4 5049.87C13217.2 4998.31 13250.7 4958.21 13294.1 4929.56C13337.5 4900.92 13388.2 4886.6 13446.3 4886.6C13489.7 4886.6 13529.4 4897.65 13565.4 4919.74C13602.2 4941.02 13632.1 4971.3 13655 5010.59V4668.08H13779V5549.52H13663.6V5432.89C13640.7 5473.81 13610 5505.73 13571.6 5528.65C13533.9 5550.74 13492.2 5561.79 13446.3 5561.79C13388.2 5561.79 13337.5 5547.47 13294.1 5518.82C13250.7 5489.36 13217.2 5449.26 13193.4 5398.52C13169.7 5346.96 13157.8 5288.85 13157.8 5224.19ZM13286.7 5224.19C13286.7 5297.03 13303.9 5353.1 13338.3 5392.38C13372.7 5431.66 13416.9 5451.31 13470.9 5451.31C13506.9 5451.31 13538.4 5442.3 13565.4 5424.3C13593.2 5405.47 13614.9 5378.88 13630.5 5344.5C13646.9 5310.13 13655 5269.21 13655 5221.74C13655 5173.45 13646.9 5132.53 13630.5 5098.98C13614.1 5065.42 13592 5040.05 13564.2 5022.86C13536.4 5004.86 13505.3 4995.86 13470.9 4995.86C13416.9 4995.86 13372.7 5015.5 13338.3 5054.78C13303.9 5094.07 13286.7 5150.54 13286.7 5224.19Z" fill="#302418"/>
<path d="M13904.7 5224.19C13904.7 5158.72 13916.6 5100.61 13940.3 5049.87C13964.1 4998.31 13997.6 4958.21 14041 4929.56C14084.4 4900.92 14135.1 4886.6 14193.2 4886.6C14236.6 4886.6 14276.3 4897.65 14312.3 4919.74C14349.1 4941.02 14379 4971.3 14401.9 5010.59V4668.08H14525.9V5549.52H14410.5V5432.89C14387.6 5473.81 14356.9 5505.73 14318.4 5528.65C14280.8 5550.74 14239.1 5561.79 14193.2 5561.79C14135.1 5561.79 14084.4 5547.47 14041 5518.82C13997.6 5489.36 13964.1 5449.26 13940.3 5398.52C13916.6 5346.96 13904.7 5288.85 13904.7 5224.19ZM14033.6 5224.19C14033.6 5297.03 14050.8 5353.1 14085.2 5392.38C14119.6 5431.66 14163.8 5451.31 14217.8 5451.31C14253.8 5451.31 14285.3 5442.3 14312.3 5424.3C14340.1 5405.47 14361.8 5378.88 14377.4 5344.5C14393.7 5310.13 14401.9 5269.21 14401.9 5221.74C14401.9 5173.45 14393.7 5132.53 14377.4 5098.98C14361 5065.42 14338.9 5040.05 14311.1 5022.86C14283.3 5004.86 14252.2 4995.86 14217.8 4995.86C14163.8 4995.86 14119.6 5015.5 14085.2 5054.78C14050.8 5094.07 14033.6 5150.54 14033.6 5224.19Z" fill="#302418"/>
<path d="M14965.9 5561.79C14902.9 5561.79 14847.6 5547.88 14800.2 5520.05C14753.5 5491.41 14717.1 5451.31 14690.9 5399.74C14664.7 5348.18 14651.6 5288.44 14651.6 5220.51C14651.6 5155.86 14665.1 5098.57 14692.1 5048.64C14719.1 4998.72 14756 4959.44 14802.6 4930.79C14849.3 4901.33 14902.5 4886.6 14962.2 4886.6C15011.3 4886.6 15055.1 4896.01 15093.6 4914.83C15132.8 4932.84 15166 4958.62 15193 4992.17C15220.8 5024.91 15240.9 5063.78 15253.2 5108.8C15265.4 5152.99 15268.7 5201.69 15263 5254.89H14724V5172.63H15131.6C15129.2 5112.07 15112.4 5065.01 15081.3 5031.46C15051 4997.08 15010.5 4979.9 14959.8 4979.9C14922.9 4979.9 14890.6 4989.72 14862.8 5009.36C14835.8 5028.18 14814.5 5055.6 14798.9 5091.61C14784.2 5126.8 14776.8 5169.77 14776.8 5220.51C14776.8 5271.25 14784.2 5315.04 14798.9 5351.87C14813.7 5387.88 14834.9 5415.7 14862.8 5435.35C14890.6 5454.99 14924.2 5464.81 14963.4 5464.81C15010.1 5464.81 15048.5 5452.94 15078.8 5429.21C15109.9 5405.47 15130.4 5372.33 15140.2 5329.77H15263C15247.4 5401.79 15213.1 5458.67 15159.9 5500.41C15107.5 5541.33 15042.8 5561.79 14965.9 5561.79Z" fill="#302418"/>
</g>
<defs>
<clipPath id="clip0_597_1809">
<rect x="7.25" width="4504.5" height="2583.75" rx="249.75" fill="white"/>
</clipPath>
<clipPath id="clip1_597_1809">
<rect x="5747.75" width="4504.5" height="2583.75" rx="249.75" fill="white"/>
</clipPath>
<clipPath id="clip2_597_1809">
<rect x="11488.2" width="4504.5" height="2583.75" rx="249.75" fill="white"/>
</clipPath>
<clipPath id="clip3_597_1809">
<rect x="7.25" y="3819.75" width="4504.5" height="2583.75" rx="249.75" fill="white"/>
</clipPath>
<clipPath id="clip4_597_1809">
<rect x="5747.75" y="3819.75" width="4504.5" height="2583.75" rx="249.75" fill="white"/>
</clipPath>
<clipPath id="clip5_597_1809">
<rect x="11488.2" y="3819.75" width="4504.5" height="2583.75" rx="249.75" fill="white"/>
</clipPath>
</defs>
</svg>
